<?xml version="1.0" encoding="iso-8859-1"?>
<!-- Generator: Adobe Illustrator 19.0.0, SVG Export Plug-In . SVG Version: 6.00 Build 0)  -->
<svg version="1.1" id="Capa_1" xmlns="http://www.w3.org/2000/svg" xmlns:xlink="http://www.w3.org/1999/xlink" x="0px" y="0px"
	 viewBox="0 0 387.2 387.2" style="enable-background:new 0 0 387.2 387.2;" xml:space="preserve">
<g>
	<g>
		<path d="M353.6,368H23.2L60,330.4l43.2,22.4c3.2,1.6,7.2,0.8,8.8-2.4l45.6-66.4l42.4,20c3.2,1.6,7.2,0,8.8-3.2l44-80h44.8
			c2.4,0,4.8-1.6,5.6-3.2l40-70.4c1.6-3.2,0.8-7.2-2.4-9.6c-3.2-1.6-7.2-0.8-9.6,2.4l-37.6,67.2h-44c-2.4,0-4.8,1.6-6.4,3.2
			L200.8,288l-42.4-20c-3.2-1.6-6.4-0.8-8.8,2.4l-44.8,67.2L62.4,316c-2.4-1.6-5.6-0.8-8,1.6l-40,40.8V12c0-4-3.2-7.2-7.2-7.2
			S0,8,0,12v363.2c0.8,4,4,7.2,7.2,7.2h346.4c4,0,7.2-3.2,7.2-7.2S357.6,368,353.6,368z"/>
		<path d="M380,69.6h-26.4V44c0-4-3.2-7.2-7.2-7.2s-7.2,3.2-7.2,7.2v25.6h-25.6c-4,0-7.2,3.2-7.2,7.2c0.8,4,4,7.2,8,7.2H340v25.6
			c0,4,3.2,7.2,7.2,7.2s7.2-3.2,7.2-7.2V84H380c4,0,7.2-3.2,7.2-7.2S384,69.6,380,69.6z"/>
	</g>
</g>
<g>
</g>
<g>
</g>
<g>
</g>
<g>
</g>
<g>
</g>
<g>
</g>
<g>
</g>
<g>
</g>
<g>
</g>
<g>
</g>
<g>
</g>
<g>
</g>
<g>
</g>
<g>
</g>
<g>
</g>
</svg>
